<svg width="109" height="42" viewBox="0 0 109 42" fill="none" xmlns="http://www.w3.org/2000/svg">
<path d="M67.9721 36.695H56.4399C55.0403 36.695 53.9658 35.5689 53.9658 34.1625V7.94098C53.9658 6.53338 55.0391 5.45483 56.4399 5.45483H67.225C73.1518 5.45483 76.6992 8.92081 76.6992 13.4239C76.6992 17.977 73.9304 19.599 72.9663 19.9488C74.4628 20.3278 78.5207 22.0547 78.5207 27.7485C78.5195 32.6282 74.6035 36.695 67.9721 36.695ZM67.0104 10.053H58.9612V17.9331H67.0104C70.2024 17.9331 71.705 16.1489 71.705 13.9906C71.7062 11.7884 70.2957 10.053 67.0104 10.053ZM68.1528 22.4825H58.9624V32.0529H68.1528C71.8347 32.0529 73.5253 29.6606 73.5253 27.2683C73.5241 24.876 71.8578 22.4825 68.1528 22.4825ZM92.8945 36.695H85.2407C83.8411 36.695 82.7206 35.6347 82.7206 34.1625V7.94098C82.7206 6.53338 83.8411 5.45483 85.2407 5.45483H92.8945C103.271 5.45483 109 12.4441 109 21.0737C109.001 29.7069 103.209 36.695 92.8945 36.695ZM92.5731 10.053H87.762V32.0956H92.5731C99.914 32.0956 104.006 27.7339 104.006 21.0737C104.006 14.3647 99.9831 10.053 92.5731 10.053Z" fill="white"/>
<path d="M20.8973 42C31.3707 42 40.0432 34.2588 41.5592 24.1607L33.7708 25.2514C33.6507 25.2672 33.601 25.3318 33.5719 25.4171C32.0281 29.9385 28.1375 33.3789 23.3119 34.2612C25.1492 33.3618 26.4166 31.4655 26.4166 29.2731C26.4166 26.2105 23.9462 23.7268 20.8973 23.7268C17.8508 23.7268 15.378 26.2093 15.378 29.2731C15.378 31.4655 16.6441 33.3618 18.4826 34.2612C13.657 33.3789 9.76527 29.9385 8.22142 25.4171C8.19231 25.3318 8.1438 25.2685 8.02374 25.2514L0.234131 24.1607C1.7513 34.2576 10.4238 42 20.8973 42Z" fill="white"/>
<path d="M12.01 19.8977C11.9409 19.9209 0.203745 23.945 0.203745 23.945C0.0691278 22.9822 0 22 0 20.9994C0 17.9283 0.656108 15.0119 1.83492 12.382C1.83492 12.382 11.9943 19.5833 12.0561 19.6271C12.1192 19.6722 12.1459 19.7112 12.1459 19.7575C12.1447 19.8404 12.0804 19.8745 12.01 19.8977ZM20.8208 0C16.7059 0.0146244 12.8711 1.22357 9.64393 3.30146C9.64393 3.30146 17.9429 12.1297 18.2231 12.4259C18.2801 12.4856 18.3225 12.5197 18.3734 12.5197C18.4256 12.5197 18.4826 12.4868 18.502 12.3893C18.6111 11.8092 20.8208 0 20.8208 0ZM14.2415 15.1448C14.2415 15.1204 14.2379 15.0899 14.2173 15.0412C14.1942 14.9839 9.51416 3.38433 9.51416 3.38433C6.21543 5.54143 3.55947 8.61011 1.90041 12.2345C1.90041 12.2345 13.9335 15.224 14.022 15.2459C14.0596 15.2545 14.0912 15.2606 14.1275 15.2606C14.1906 15.2618 14.2415 15.2118 14.2415 15.1448ZM29.7832 19.8977C29.8523 19.9209 41.5894 23.945 41.5894 23.945C41.7253 22.9822 41.7944 22 41.7944 20.9994C41.7944 17.9283 41.1383 15.0119 39.9595 12.382C39.9595 12.382 29.8001 19.5833 29.7371 19.6271C29.6752 19.6722 29.6473 19.7112 29.6473 19.7575C29.6485 19.8404 29.7128 19.8745 29.7832 19.8977ZM23.2924 12.3893C23.3106 12.488 23.3676 12.5197 23.421 12.5197C23.4719 12.5197 23.5144 12.4856 23.5714 12.4259C23.8503 12.1309 32.1505 3.30146 32.1505 3.30146C28.9221 1.22479 25.0885 0.0158431 20.9736 0C20.9736 0 23.1833 11.8092 23.2924 12.3893ZM27.6669 15.2618C27.702 15.2618 27.736 15.2557 27.7724 15.2471C27.8597 15.2252 39.8928 12.2357 39.8928 12.2357C38.2337 8.61133 35.579 5.54264 32.2802 3.38555C32.2802 3.38555 27.6002 14.9839 27.5759 15.0424C27.5565 15.0912 27.5517 15.1216 27.5517 15.146C27.5517 15.2118 27.6038 15.2618 27.6669 15.2618Z" fill="white"/>
</svg>
